<?xml version="1.0" encoding="iso-8859-1"?>
<!-- Generator: Adobe Illustrator 19.0.0, SVG Export Plug-In . SVG Version: 6.00 Build 0)  -->
<svg version="1.1" id="Capa_1" xmlns="http://www.w3.org/2000/svg" xmlns:xlink="http://www.w3.org/1999/xlink" x="0px" y="0px"
	 viewBox="0 0 512 512" style="enable-background:new 0 0 512 512;" xml:space="preserve">
<path style="fill:#87CED9;" d="M503.245,268.8c0.102-2.842,0.222-5.675,0.222-8.533C503.467,123.597,392.67,12.8,256,12.8
	S8.533,123.597,8.533,260.267c0,2.859,0.119,5.692,0.222,8.533H503.245z"/>
<path style="fill:#7DC6D1;" d="M503.467,260.267C503.467,123.597,392.67,12.8,256,12.8c-5.734,0-11.409,0.265-17.067,0.649
	C284.595,52.745,347.836,130.202,372.992,268.8h130.253C503.347,265.958,503.467,263.125,503.467,260.267z"/>
<path style="fill:#FEC9A3;" d="M256,200.533L256,200.533c18.85,0,34.133,15.283,34.133,34.133v17.067
	c0,18.85-15.283,34.133-34.133,34.133l0,0c-18.85,0-34.133-15.283-34.133-34.133v-17.067
	C221.867,215.817,237.15,200.533,256,200.533z"/>
<rect x="221.867" y="388.267" style="fill:#4398D1;" width="68.267" height="119.467"/>
<rect x="247.467" y="413.867" style="fill:#3685BA;" width="17.067" height="93.867"/>
<path style="fill:#FEC9A3;" d="M435.2,285.867L435.2,285.867c-18.85,0-34.133-15.283-34.133-34.133v-17.067
	c0-18.85,15.283-34.133,34.133-34.133l0,0c18.85,0,34.133,15.283,34.133,34.133v17.067
	C469.333,270.583,454.05,285.867,435.2,285.867z"/>
<rect x="401.067" y="388.267" style="fill:#4398D1;" width="68.267" height="119.467"/>
<rect x="426.667" y="413.867" style="fill:#3685BA;" width="17.067" height="93.867"/>
<path style="fill:#E0D2C1;" d="M358.4,388.267l-40.542-85.12c-6.298-10.598-17.664-17.143-29.986-17.28H223.07
	c-11.409,0-22.067,5.7-28.399,15.198L153.6,388.267h34.133L221.867,320v68.267h68.267V320l34.133,68.267H358.4z"/>
<path style="fill:#F0E4D6;" d="M401.067,285.943c0.751-0.051,1.502-0.077,2.261-0.077h66.005c18.85,0,34.133,15.283,34.133,34.133
	v68.267h-102.4V320L358.4,388.267h-34.133l49.604-87.202c6.332-9.498,16.99-15.198,28.399-15.198L401.067,285.943z"/>
<rect x="460.8" y="320" style="fill:#E0D2C1;" width="17.067" height="68.267"/>
<path style="fill:#FEC9A3;" d="M76.8,200.533L76.8,200.533c18.85,0,34.133,15.283,34.133,34.133v17.067
	c0,18.85-15.283,34.133-34.133,34.133l0,0c-18.85,0-34.133-15.283-34.133-34.133v-17.067C42.667,215.817,57.95,200.533,76.8,200.533
	z"/>
<g>
	<path style="fill:#FABD91;" d="M76.8,200.533c-2.884,0.034-5.751,0.444-8.533,1.203c15.044,3.857,25.574,17.399,25.6,32.93v17.067
		c-0.034,15.531-10.556,29.073-25.6,32.93c17.963,4.932,36.531-5.623,41.463-23.586c0.836-3.046,1.237-6.187,1.203-9.344v-17.067
		C110.933,215.817,95.65,200.533,76.8,200.533z"/>
	<path style="fill:#FABD91;" d="M256,200.533c-2.884,0.034-5.751,0.444-8.533,1.203c15.044,3.857,25.574,17.399,25.6,32.93v17.067
		c-0.034,15.531-10.556,29.073-25.6,32.93c17.963,4.932,36.531-5.623,41.463-23.586c0.836-3.046,1.237-6.187,1.203-9.344v-17.067
		C290.133,215.817,274.85,200.533,256,200.533z"/>
	<path style="fill:#FABD91;" d="M435.2,200.533c-2.884,0.034-5.751,0.444-8.533,1.203c15.044,3.857,25.574,17.399,25.6,32.93v17.067
		c-0.034,15.531-10.556,29.073-25.6,32.93c17.963,4.932,36.531-5.623,41.463-23.586c0.836-3.046,1.237-6.187,1.203-9.344v-17.067
		C469.333,215.817,454.05,200.533,435.2,200.533z"/>
</g>
<rect x="42.667" y="388.267" style="fill:#4398D1;" width="68.267" height="119.467"/>
<rect x="68.267" y="413.867" style="fill:#3685BA;" width="17.067" height="93.867"/>
<path style="fill:#F0E4D6;" d="M110.933,285.943c-0.751-0.077-1.502-0.077-2.261-0.077H42.667c-18.85,0-34.133,15.283-34.133,34.133
	v68.267h102.4V320l42.667,68.267h34.133l-49.604-87.202c-6.332-9.498-16.99-15.198-28.399-15.198L110.933,285.943z"/>
<rect x="34.133" y="320" style="fill:#E0D2C1;" width="17.067" height="68.267"/>
<g>
	<rect x="136.533" y="234.667" style="fill:#4398D1;" width="17.067" height="17.067"/>
	<rect x="170.667" y="234.667" style="fill:#4398D1;" width="17.067" height="17.067"/>
	<rect x="324.267" y="234.667" style="fill:#4398D1;" width="17.067" height="17.067"/>
	<rect x="358.4" y="234.667" style="fill:#4398D1;" width="17.067" height="17.067"/>
	<path style="fill:#4398D1;" d="M256,4.267C114.679,4.429,0.162,118.946,0,260.267v8.533h17.067v-8.533
		c-0.034-35.43,7.859-70.417,23.1-102.4h78.148c-2.739,10.829-5.12,21.751-6.827,32.819l16.862,2.628
		c1.903-11.938,4.429-23.774,7.578-35.447h111.539v17.067h17.067v-17.067h111.949c3.166,11.674,5.709,23.501,7.62,35.439
		l16.862-2.611c-1.707-11.093-4.139-21.99-6.827-32.828h77.739c15.223,31.983,23.1,66.978,23.057,102.4v8.533H512v-8.533
		C511.838,118.946,397.321,4.429,256,4.267z M198.246,32.614l4.028-5.12c14.848-3.43,29.995-5.436,45.227-5.973V64h-71.04
		C183.142,53.146,190.413,42.667,198.246,32.614z M156.51,64h-36.548c17.007-11.844,35.49-21.427,54.972-28.493
		C168.371,44.74,162.193,54.221,156.51,64z M264.533,21.547c15.386,0.538,30.694,2.577,45.687,6.067l3.934,5.001
		c7.842,10.052,15.113,20.531,21.794,31.386h-71.415V21.547z M337.587,35.695c19.294,7.049,37.598,16.563,54.451,28.305H355.9
		C350.251,54.289,344.149,44.851,337.587,35.695z M49.212,140.8c13.005-22.426,29.551-42.59,48.998-59.733h48.87
		c-9.771,19.166-17.826,39.151-24.073,59.733H49.212z M140.954,140.8c6.647-20.668,15.223-40.661,25.6-59.733h80.913V140.8H140.954z
		 M264.533,140.8V81.067h81.314c10.385,19.063,18.953,39.066,25.6,59.733H264.533z M389.402,140.8
		c-6.255-20.582-14.31-40.567-24.073-59.733h48.461c19.447,17.143,35.994,37.308,48.998,59.733H389.402z"/>
	<rect x="247.467" y="285.867" style="fill:#4398D1;" width="17.067" height="76.8"/>
	<rect x="426.667" y="285.867" style="fill:#4398D1;" width="17.067" height="76.8"/>
	<rect x="68.267" y="285.867" style="fill:#4398D1;" width="17.067" height="76.8"/>
</g>
<path style="fill:#3E8FC9;" d="M256,4.267c-28.382-0.009-56.567,4.736-83.388,14.02c6.332,6.724,12.979,14.182,19.789,22.272
	c1.946-2.645,3.814-5.35,5.845-7.945l4.028-5.12c14.848-3.43,29.995-5.436,45.227-5.973V64h-36.412
	c4.122,5.461,8.277,11.093,12.45,17.067h23.927v37.026c7.433,12.425,14.805,25.6,21.99,39.774h107.025
	c3.166,11.674,5.709,23.501,7.62,35.439l16.862-2.611c-1.707-11.093-4.139-21.99-6.827-32.828h77.739
	c15.223,31.983,23.1,66.978,23.057,102.4v8.533H512v-8.533C511.838,118.946,397.321,4.429,256,4.267z M392.038,64H355.9
	c-5.649-9.711-11.75-19.149-18.313-28.305C356.881,42.743,375.185,52.258,392.038,64z M264.533,21.547
	c15.386,0.538,30.694,2.577,45.687,6.067l3.934,5.001c7.842,10.052,15.113,20.531,21.794,31.386h-71.415V21.547z M264.533,140.8
	V81.067h81.314c10.385,19.063,18.953,39.066,25.6,59.733H264.533z M389.402,140.8c-6.255-20.582-14.31-40.567-24.073-59.733h48.461
	c19.447,17.143,35.994,37.308,48.998,59.733H389.402z"/>
<g>
</g>
<g>
</g>
<g>
</g>
<g>
</g>
<g>
</g>
<g>
</g>
<g>
</g>
<g>
</g>
<g>
</g>
<g>
</g>
<g>
</g>
<g>
</g>
<g>
</g>
<g>
</g>
<g>
</g>
</svg>
