<?xml version="1.0" encoding="iso-8859-1"?>
<!-- Generator: Adobe Illustrator 19.0.0, SVG Export Plug-In . SVG Version: 6.00 Build 0)  -->
<svg version="1.1" id="Capa_1" xmlns="http://www.w3.org/2000/svg" xmlns:xlink="http://www.w3.org/1999/xlink" x="0px" y="0px"
	 viewBox="0 0 512 512" style="enable-background:new 0 0 512 512;" xml:space="preserve">
<g transform="matrix(1.25 0 0 -1.25 0 45)">
	<g>
		<g>
			<g>
				<path style="fill:#FFAC33;" d="M316.227-111.911c0-125.156,56.889-113.778,56.889-170.667c0,0,0-22.756-22.756-22.756H54.538
					c-22.756,0-22.756,22.756-22.756,22.756c0,56.889,56.889,45.511,56.889,170.667c0,62.828,50.938,113.778,113.778,113.778
					S316.227-49.083,316.227-111.911"/>
				<path style="fill:#FFAC33;" d="M236.582,1.867C236.582,20.72,221.291,36,202.449,36c-18.853,0-34.133-15.28-34.133-34.133
					s15.28-34.133,34.133-34.133C221.291-32.267,236.582-16.986,236.582,1.867"/>
				<path style="fill:#FFAC33;" d="M202.449-373.6c25.134,0,45.511,20.378,45.511,45.511h-91.022
					C156.938-353.222,177.316-373.6,202.449-373.6"/>
			</g>
			<path style="fill:#DD2E44;" d="M350.36-339.501L43.092-32.233c-6.269,6.269-6.269,16.418,0,22.687l0.068,0.068
				c6.269,6.269,16.418,6.269,22.687,0l307.268-307.268c6.269-6.269,6.269-16.418,0-22.687l-0.068-0.068
				C366.778-345.77,356.629-345.77,350.36-339.501"/>
		</g>
	</g>
</g>
<g>
</g>
<g>
</g>
<g>
</g>
<g>
</g>
<g>
</g>
<g>
</g>
<g>
</g>
<g>
</g>
<g>
</g>
<g>
</g>
<g>
</g>
<g>
</g>
<g>
</g>
<g>
</g>
<g>
</g>
</svg>
